<svg width="666" height="200" viewBox="0 0 666 200" fill="none" xmlns="http://www.w3.org/2000/svg">
<g clip-path="url(#clip0_269_2)">
<path d="M8.225 163V157.925H17.15V46.8H8.225V41.725H53.725C66.9083 41.725 77.525 43.2417 85.575 46.275C93.7417 49.1917 99.6333 53.2167 103.25 58.35C106.983 63.3667 108.85 69.025 108.85 75.325C108.85 83.025 106.867 89.6167 102.9 95.1C99.05 100.467 93.7417 104.608 86.975 107.525C80.325 110.325 72.6833 111.725 64.05 111.725C61.4833 111.725 58.625 111.375 55.475 110.675C52.4417 109.975 49.8167 109.042 47.6 107.875C45.5 106.708 44.45 105.483 44.45 104.2C44.45 102.45 45.0917 101.575 46.375 101.575C47.1917 101.575 48.4167 102.042 50.05 102.975C51.3333 103.792 53.1417 104.492 55.475 105.075C57.8083 105.658 59.7333 105.95 61.25 105.95C68.4833 105.95 73.85 103.675 77.35 99.125C80.85 94.4583 82.6 86.5833 82.6 75.5C82.6 69.9 81.8417 64.9417 80.325 60.625C78.925 56.3083 76.3 52.925 72.45 50.475C68.7167 48.025 63.35 46.8 56.35 46.8H41.125V157.925H50.05V163H8.225ZM122.076 102.275C122.076 92.9417 123.651 84.425 126.801 76.725C129.951 68.9083 134.326 62.1417 139.926 56.425C145.643 50.7083 152.176 46.3333 159.526 43.3C166.993 40.15 174.926 38.575 183.326 38.575C191.726 38.575 199.66 40.15 207.126 43.3C214.593 46.3333 221.126 50.7083 226.726 56.425C232.326 62.1417 236.701 68.9083 239.851 76.725C243.118 84.425 244.751 92.9417 244.751 102.275C244.751 111.608 243.118 120.183 239.851 128C236.701 135.7 232.326 142.408 226.726 148.125C221.126 153.842 214.593 158.275 207.126 161.425C199.66 164.458 191.726 165.975 183.326 165.975C174.926 165.975 166.993 164.458 159.526 161.425C152.176 158.275 145.643 153.842 139.926 148.125C134.326 142.408 129.951 135.7 126.801 128C123.651 120.183 122.076 111.608 122.076 102.275ZM149.376 102.275C149.376 113.475 150.31 123.508 152.176 132.375C154.16 141.125 157.601 148.067 162.501 153.2C167.518 158.217 174.46 160.725 183.326 160.725C192.31 160.725 199.251 158.217 204.151 153.2C209.051 148.067 212.493 141.125 214.476 132.375C216.46 123.508 217.451 113.475 217.451 102.275C217.451 90.9583 216.46 80.925 214.476 72.175C212.493 63.3083 209.051 56.3667 204.151 51.35C199.251 46.2167 192.31 43.65 183.326 43.65C174.46 43.65 167.518 46.2167 162.501 51.35C157.601 56.3667 154.16 63.3083 152.176 72.175C150.31 80.925 149.376 90.9583 149.376 102.275ZM262.351 163V157.925H271.276V46.8H262.351V41.725H307.851C321.034 41.725 331.651 43.2417 339.701 46.275C347.868 49.1917 353.759 53.2167 357.376 58.35C361.109 63.3667 362.976 69.025 362.976 75.325C362.976 83.025 360.993 89.6167 357.026 95.1C353.176 100.467 347.868 104.608 341.101 107.525C334.451 110.325 326.809 111.725 318.176 111.725C315.609 111.725 312.751 111.375 309.601 110.675C306.568 109.975 303.943 109.042 301.726 107.875C299.626 106.708 298.576 105.483 298.576 104.2C298.576 102.45 299.218 101.575 300.501 101.575C301.318 101.575 302.543 102.042 304.176 102.975C305.459 103.792 307.268 104.492 309.601 105.075C311.934 105.658 313.859 105.95 315.376 105.95C322.609 105.95 327.976 103.675 331.476 99.125C334.976 94.4583 336.726 86.5833 336.726 75.5C336.726 69.9 335.968 64.9417 334.451 60.625C333.051 56.3083 330.426 52.925 326.576 50.475C322.843 48.025 317.476 46.8 310.476 46.8H295.251V157.925H304.176V163H262.351ZM374.102 46.8V41.725H415.927V46.8H407.002V132.2C407.002 138.967 408.169 144.45 410.502 148.65C412.835 152.85 415.81 155.942 419.427 157.925C423.16 159.792 427.01 160.725 430.977 160.725C438.677 160.725 445.035 159.208 450.052 156.175C455.069 153.142 458.802 149.058 461.252 143.925C463.702 138.792 464.927 133.133 464.927 126.95V58C464.927 53.5667 463.585 50.5917 460.902 49.075C458.219 47.5583 454.719 46.8 450.402 46.8V41.725H485.927V46.8C483.827 46.8 481.61 47.2083 479.277 48.025C476.944 48.725 474.96 49.95 473.327 51.7C471.694 53.3333 470.877 55.4917 470.877 58.175V129.4C470.877 136.05 469.302 142.175 466.152 147.775C463.002 153.258 458.452 157.692 452.502 161.075C446.669 164.342 439.61 165.975 431.327 165.975C421.41 165.975 412.835 164.575 405.602 161.775C398.369 158.858 392.769 154.075 388.802 147.425C384.952 140.775 383.027 131.792 383.027 120.475V46.8H374.102ZM498.704 163V157.925H507.629V46.8H498.704V41.725H540.529V46.8H531.604V157.925H547.354C553.07 157.925 558.729 156.933 564.329 154.95C569.929 152.967 574.712 149.642 578.679 144.975C580.779 142.525 582.645 140.075 584.279 137.625C585.912 135.175 587.37 132.492 588.654 129.575C589.12 128.642 589.587 127.942 590.054 127.475C590.637 126.892 591.512 126.6 592.679 126.6C593.612 126.6 594.37 126.892 594.954 127.475C595.537 128.058 595.829 128.758 595.829 129.575C595.829 130.858 595.479 133.25 594.779 136.75L589.179 163H498.704ZM613.378 46.625C613.378 44.9917 614.194 43.125 615.828 41.025C617.461 38.925 619.328 37.0583 621.428 35.425C623.644 33.7917 625.511 32.975 627.028 32.975C628.661 32.975 630.528 33.7917 632.628 35.425C634.728 37.0583 636.594 38.925 638.228 41.025C639.861 43.125 640.678 44.9917 640.678 46.625C640.678 48.1417 639.861 50.0083 638.228 52.225C636.594 54.325 634.728 56.1917 632.628 57.825C630.528 59.4583 628.661 60.275 627.028 60.275C625.511 60.275 623.644 59.4583 621.428 57.825C619.328 56.1917 617.461 54.325 615.828 52.225C614.194 50.0083 613.378 48.1417 613.378 46.625ZM603.928 161.6C603.928 159.85 604.744 158.975 606.378 158.975L613.728 158.45C614.894 158.333 615.886 158.042 616.703 157.575C617.636 156.992 618.103 155.883 618.103 154.25V95.975C618.103 94.1083 617.869 92.7667 617.403 91.95C616.936 91.0167 616.178 90.3167 615.128 89.85C614.078 89.2667 612.736 88.8583 611.103 88.625C609.586 88.3917 608.186 88.2167 606.903 88.1C605.969 87.9833 605.211 87.8667 604.628 87.75C604.161 87.5167 603.928 86.8167 603.928 85.65C603.928 84.6 604.103 83.9 604.453 83.55C604.803 83.0833 605.561 82.85 606.728 82.85C608.011 82.85 610.111 82.7917 613.028 82.675C615.944 82.4417 618.511 82.2667 620.728 82.15C623.528 81.9167 626.094 81.6833 628.428 81.45C630.761 81.2167 632.628 81.1 634.028 81.1C635.894 81.1 637.003 81.625 637.353 82.675C637.703 83.6083 637.878 84.7167 637.878 86V154.25C637.878 155.883 638.286 156.992 639.103 157.575C640.036 158.042 641.086 158.333 642.253 158.45L649.603 158.975C651.236 158.975 652.053 159.85 652.053 161.6C652.053 163.233 651.411 164.05 650.128 164.05C648.961 164.05 647.328 163.933 645.228 163.7C643.244 163.583 641.378 163.467 639.628 163.35C637.644 163.117 635.603 162.942 633.503 162.825C631.403 162.708 629.536 162.65 627.903 162.65C626.269 162.65 624.403 162.708 622.303 162.825C620.203 162.942 618.161 163.117 616.178 163.35C614.428 163.467 612.503 163.583 610.403 163.7C608.419 163.933 606.844 164.05 605.678 164.05C604.511 164.05 603.928 163.233 603.928 161.6Z" fill="#2252E1"/>
<path d="M8.225 163V157.925H17.15V46.8H8.225V41.725H53.725C66.9083 41.725 77.525 43.2417 85.575 46.275C93.7417 49.1917 99.6333 53.2167 103.25 58.35C106.983 63.3667 108.85 69.025 108.85 75.325C108.85 83.025 106.867 89.6167 102.9 95.1C99.05 100.467 93.7417 104.608 86.975 107.525C80.325 110.325 72.6833 111.725 64.05 111.725C61.4833 111.725 58.625 111.375 55.475 110.675C52.4417 109.975 49.8167 109.042 47.6 107.875C45.5 106.708 44.45 105.483 44.45 104.2C44.45 102.45 45.0917 101.575 46.375 101.575C47.1917 101.575 48.4167 102.042 50.05 102.975C51.3333 103.792 53.1417 104.492 55.475 105.075C57.8083 105.658 59.7333 105.95 61.25 105.95C68.4833 105.95 73.85 103.675 77.35 99.125C80.85 94.4583 82.6 86.5833 82.6 75.5C82.6 69.9 81.8417 64.9417 80.325 60.625C78.925 56.3083 76.3 52.925 72.45 50.475C68.7167 48.025 63.35 46.8 56.35 46.8H41.125V157.925H50.05V163H8.225ZM122.076 102.275C122.076 92.9417 123.651 84.425 126.801 76.725C129.951 68.9083 134.326 62.1417 139.926 56.425C145.643 50.7083 152.176 46.3333 159.526 43.3C166.993 40.15 174.926 38.575 183.326 38.575C191.726 38.575 199.66 40.15 207.126 43.3C214.593 46.3333 221.126 50.7083 226.726 56.425C232.326 62.1417 236.701 68.9083 239.851 76.725C243.118 84.425 244.751 92.9417 244.751 102.275C244.751 111.608 243.118 120.183 239.851 128C236.701 135.7 232.326 142.408 226.726 148.125C221.126 153.842 214.593 158.275 207.126 161.425C199.66 164.458 191.726 165.975 183.326 165.975C174.926 165.975 166.993 164.458 159.526 161.425C152.176 158.275 145.643 153.842 139.926 148.125C134.326 142.408 129.951 135.7 126.801 128C123.651 120.183 122.076 111.608 122.076 102.275ZM149.376 102.275C149.376 113.475 150.31 123.508 152.176 132.375C154.16 141.125 157.601 148.067 162.501 153.2C167.518 158.217 174.46 160.725 183.326 160.725C192.31 160.725 199.251 158.217 204.151 153.2C209.051 148.067 212.493 141.125 214.476 132.375C216.46 123.508 217.451 113.475 217.451 102.275C217.451 90.9583 216.46 80.925 214.476 72.175C212.493 63.3083 209.051 56.3667 204.151 51.35C199.251 46.2167 192.31 43.65 183.326 43.65C174.46 43.65 167.518 46.2167 162.501 51.35C157.601 56.3667 154.16 63.3083 152.176 72.175C150.31 80.925 149.376 90.9583 149.376 102.275ZM262.351 163V157.925H271.276V46.8H262.351V41.725H307.851C321.034 41.725 331.651 43.2417 339.701 46.275C347.868 49.1917 353.759 53.2167 357.376 58.35C361.109 63.3667 362.976 69.025 362.976 75.325C362.976 83.025 360.993 89.6167 357.026 95.1C353.176 100.467 347.868 104.608 341.101 107.525C334.451 110.325 326.809 111.725 318.176 111.725C315.609 111.725 312.751 111.375 309.601 110.675C306.568 109.975 303.943 109.042 301.726 107.875C299.626 106.708 298.576 105.483 298.576 104.2C298.576 102.45 299.218 101.575 300.501 101.575C301.318 101.575 302.543 102.042 304.176 102.975C305.459 103.792 307.268 104.492 309.601 105.075C311.934 105.658 313.859 105.95 315.376 105.95C322.609 105.95 327.976 103.675 331.476 99.125C334.976 94.4583 336.726 86.5833 336.726 75.5C336.726 69.9 335.968 64.9417 334.451 60.625C333.051 56.3083 330.426 52.925 326.576 50.475C322.843 48.025 317.476 46.8 310.476 46.8H295.251V157.925H304.176V163H262.351ZM374.102 46.8V41.725H415.927V46.8H407.002V132.2C407.002 138.967 408.169 144.45 410.502 148.65C412.835 152.85 415.81 155.942 419.427 157.925C423.16 159.792 427.01 160.725 430.977 160.725C438.677 160.725 445.035 159.208 450.052 156.175C455.069 153.142 458.802 149.058 461.252 143.925C463.702 138.792 464.927 133.133 464.927 126.95V58C464.927 53.5667 463.585 50.5917 460.902 49.075C458.219 47.5583 454.719 46.8 450.402 46.8V41.725H485.927V46.8C483.827 46.8 481.61 47.2083 479.277 48.025C476.944 48.725 474.96 49.95 473.327 51.7C471.694 53.3333 470.877 55.4917 470.877 58.175V129.4C470.877 136.05 469.302 142.175 466.152 147.775C463.002 153.258 458.452 157.692 452.502 161.075C446.669 164.342 439.61 165.975 431.327 165.975C421.41 165.975 412.835 164.575 405.602 161.775C398.369 158.858 392.769 154.075 388.802 147.425C384.952 140.775 383.027 131.792 383.027 120.475V46.8H374.102ZM498.704 163V157.925H507.629V46.8H498.704V41.725H540.529V46.8H531.604V157.925H547.354C553.07 157.925 558.729 156.933 564.329 154.95C569.929 152.967 574.712 149.642 578.679 144.975C580.779 142.525 582.645 140.075 584.279 137.625C585.912 135.175 587.37 132.492 588.654 129.575C589.12 128.642 589.587 127.942 590.054 127.475C590.637 126.892 591.512 126.6 592.679 126.6C593.612 126.6 594.37 126.892 594.954 127.475C595.537 128.058 595.829 128.758 595.829 129.575C595.829 130.858 595.479 133.25 594.779 136.75L589.179 163H498.704ZM613.378 46.625C613.378 44.9917 614.194 43.125 615.828 41.025C617.461 38.925 619.328 37.0583 621.428 35.425C623.644 33.7917 625.511 32.975 627.028 32.975C628.661 32.975 630.528 33.7917 632.628 35.425C634.728 37.0583 636.594 38.925 638.228 41.025C639.861 43.125 640.678 44.9917 640.678 46.625C640.678 48.1417 639.861 50.0083 638.228 52.225C636.594 54.325 634.728 56.1917 632.628 57.825C630.528 59.4583 628.661 60.275 627.028 60.275C625.511 60.275 623.644 59.4583 621.428 57.825C619.328 56.1917 617.461 54.325 615.828 52.225C614.194 50.0083 613.378 48.1417 613.378 46.625ZM603.928 161.6C603.928 159.85 604.744 158.975 606.378 158.975L613.728 158.45C614.894 158.333 615.886 158.042 616.703 157.575C617.636 156.992 618.103 155.883 618.103 154.25V95.975C618.103 94.1083 617.869 92.7667 617.403 91.95C616.936 91.0167 616.178 90.3167 615.128 89.85C614.078 89.2667 612.736 88.8583 611.103 88.625C609.586 88.3917 608.186 88.2167 606.903 88.1C605.969 87.9833 605.211 87.8667 604.628 87.75C604.161 87.5167 603.928 86.8167 603.928 85.65C603.928 84.6 604.103 83.9 604.453 83.55C604.803 83.0833 605.561 82.85 606.728 82.85C608.011 82.85 610.111 82.7917 613.028 82.675C615.944 82.4417 618.511 82.2667 620.728 82.15C623.528 81.9167 626.094 81.6833 628.428 81.45C630.761 81.2167 632.628 81.1 634.028 81.1C635.894 81.1 637.003 81.625 637.353 82.675C637.703 83.6083 637.878 84.7167 637.878 86V154.25C637.878 155.883 638.286 156.992 639.103 157.575C640.036 158.042 641.086 158.333 642.253 158.45L649.603 158.975C651.236 158.975 652.053 159.85 652.053 161.6C652.053 163.233 651.411 164.05 650.128 164.05C648.961 164.05 647.328 163.933 645.228 163.7C643.244 163.583 641.378 163.467 639.628 163.35C637.644 163.117 635.603 162.942 633.503 162.825C631.403 162.708 629.536 162.65 627.903 162.65C626.269 162.65 624.403 162.708 622.303 162.825C620.203 162.942 618.161 163.117 616.178 163.35C614.428 163.467 612.503 163.583 610.403 163.7C608.419 163.933 606.844 164.05 605.678 164.05C604.511 164.05 603.928 163.233 603.928 161.6Z" fill="#2252E1"/>
<path d="M657.309 46.3245C656.109 47.7588 654.417 49.6314 652.339 51.6197C646.337 57.3603 637.694 63.5311 628.726 63.8652C619.569 64.2062 609.653 59.2907 602.181 54.3693C598.578 51.9961 595.655 49.6948 593.804 48.1594C595.468 46.4805 598.046 44.0589 601.242 41.5274C608.194 36.0225 617.595 30.3697 626.701 30.0306C635.716 29.6948 644.693 35.1981 651.117 40.5336C653.776 42.7416 655.906 44.8442 657.309 46.3245Z" stroke="#85C1FF" stroke-width="5"/>
</g>
<defs>
<clipPath id="clip0_269_2">
<rect width="666" height="200" fill="white"/>
</clipPath>
</defs>
</svg>
